# Blender 3.3.0
# www.blender.org
mtllib FloorTile_Empty.mtl
o FloorTile_Empty
v -3.441230 0.045754 3.441230
v 3.441230 0.045754 3.441230
v -3.441230 0.045754 -3.441230
v 3.441230 0.045754 -3.441230
v -3.316207 0.012932 3.316208
v 3.316207 0.012932 3.316208
v -3.316207 0.012932 -3.316208
v 3.316207 0.012932 -3.316208
v -3.316207 0.073106 -3.316208
v -3.316207 0.073106 3.316208
v 3.316207 0.073106 3.316208
v 3.316207 0.073106 -3.316208
v -3.234343 0.073106 -3.234344
v -3.234343 0.073106 3.234344
v 3.234343 0.073106 3.234344
v 3.234343 0.073106 -3.234344
v -3.150671 0.059430 -3.150671
v -3.150671 0.059430 3.150671
v 3.150670 0.059430 3.150671
v 3.150670 0.059430 -3.150671
v -2.968926 0.059430 -2.968927
v -2.968926 0.059430 2.968927
v 2.968926 0.059430 2.968927
v 2.968926 0.059430 -2.968927
v -2.866513 0.033288 -2.866512
v -2.866513 0.033288 2.866512
v 2.866511 0.033288 2.866512
v 2.866511 0.033288 -2.866512
v 3.500000 0.000000 -3.500000
v 3.500000 0.000000 3.500000
v -3.500000 0.000000 3.500000
v -3.500000 0.000000 -3.500000
v 3.181927 -0.004232 -3.181927
v 3.181927 -0.004232 3.181927
v -3.181927 -0.004232 3.181927
v -3.181927 -0.004232 -3.181927
v -3.275852 0.045754 -3.275852
v -3.275852 0.045754 3.275852
v 3.275852 0.045754 3.275852
v 3.275852 0.045754 -3.275852
vn -0.0000 1.0000 -0.0000
vn 1.0000 -0.0000 -0.0000
vn -1.0000 -0.0000 -0.0000
vn -0.1613 0.9869 -0.0000
vn 0.1613 0.9869 -0.0000
vn -0.2473 0.9689 -0.0000
vn 0.2473 0.9689 -0.0000
vn -0.0000 0.7891 0.6143
vn -0.0000 -0.0000 -1.0000
vn -0.0000 -0.0000 1.0000
vn -0.0000 0.9869 0.1613
vn -0.0000 0.9869 -0.1613
vn -0.0000 0.9689 0.2473
vn -0.0000 0.9689 -0.2473
vn -0.0000 0.7891 -0.6143
vn -0.6143 0.7891 -0.0000
vn 0.6143 0.7891 -0.0000
vn -0.0000 0.8828 0.4698
vn 0.4698 0.8828 -0.0000
vn -0.4698 0.8828 -0.0000
vn -0.0000 0.8828 -0.4698
vt 0.138994 0.439989
vt 0.138732 0.337597
vt 0.241321 0.438156
vt 0.241060 0.335763
vt 0.244029 0.333420
vt 0.347869 0.333060
vt 0.244029 0.437262
vt 0.347869 0.436902
vt 0.247387 0.433219
vt 0.248059 0.336767
vt 0.344510 0.337103
vt 0.343839 0.433555
vt 0.249427 0.431428
vt 0.249844 0.338800
vt 0.342471 0.338894
vt 0.342054 0.431522
vt 0.251005 0.429826
vt 0.251441 0.340373
vt 0.340893 0.340496
vt 0.340457 0.429949
vt 0.253598 0.427305
vt 0.253955 0.342961
vt 0.338299 0.343017
vt 0.337942 0.427361
vt 0.686611 0.873802
vt 0.255505 0.425326
vt 0.686611 0.634199
vt 0.255930 0.344863
vt 0.926214 0.634199
vt 0.336393 0.344996
vt 0.926214 0.873802
vt 0.335968 0.425459
vt 0.243986 0.333060
vt 0.136068 0.334715
vt 0.136068 0.442693
vt 0.243986 0.441038
vt 0.235661 0.341397
vt 0.144292 0.342926
vt 0.144393 0.434356
vt 0.235761 0.432827
vt 0.238873 0.435535
vt 0.141652 0.437507
vt 0.141181 0.340218
vt 0.238402 0.338246
s 0
usemtl ScifiColor
f 2/2/1 4/4/1 40/44/1 39/43/1
f 9/9/1 10/10/1 14/14/1 13/13/1
f 6/6/2 8/8/2 12/12/2 11/11/2
f 7/7/3 5/5/3 10/10/3 9/9/3
f 11/11/1 12/12/1 16/16/1 15/15/1
f 19/19/1 20/20/1 24/24/1 23/23/1
f 15/15/4 16/16/4 20/20/4 19/19/4
f 13/13/5 14/14/5 18/18/5 17/17/5
f 17/17/1 18/18/1 22/22/1 21/21/1
f 23/23/6 24/24/6 28/32/6 27/30/6
f 21/21/7 22/22/7 26/28/7 25/26/7
f 25/25/1 26/27/1 27/29/1 28/31/1
f 1/1/8 31/35/8 30/34/8 2/2/8
f 8/8/9 7/7/9 9/9/9 12/12/9
f 5/5/10 6/6/10 11/11/10 10/10/10
f 16/16/11 13/13/11 17/17/11 20/20/11
f 12/12/1 9/9/1 13/13/1 16/16/1
f 10/10/1 11/11/1 15/15/1 14/14/1
f 14/14/12 15/15/12 19/19/12 18/18/12
f 24/24/13 21/21/13 25/26/13 28/32/13
f 20/20/1 17/17/1 21/21/1 24/24/1
f 18/18/1 19/19/1 23/23/1 22/22/1
f 22/22/14 23/23/14 27/30/14 26/28/14
f 4/4/15 29/33/15 32/36/15 3/3/15
f 3/3/16 32/36/16 31/35/16 1/1/16
f 2/2/17 30/34/17 29/33/17 4/4/17
f 40/44/18 37/41/18 36/40/18 33/37/18
f 37/41/19 38/42/19 35/39/19 36/40/19
f 39/43/20 40/44/20 33/37/20 34/38/20
f 35/39/1 34/38/1 33/37/1 36/40/1
f 38/42/21 39/43/21 34/38/21 35/39/21
f 3/3/1 1/1/1 38/42/1 37/41/1
f 4/4/1 3/3/1 37/41/1 40/44/1
f 1/1/1 2/2/1 39/43/1 38/42/1
